Patient4_TMGait_0pt5_02_left_03_GRF.mot
version=1
nRows=78
nColumns=19
inDegrees=no
endheader
time	F1x	F1y	F1z	M1x	M1y	M1z	F2x	F2y	F2z	M2x	M2y	M2z	EC1x	EC1y	EC1z	EC2x	EC2y	EC2z
3.19	4.5271	2.7642	-5.8546	1.9032	1.2196	-0.62733	8.0796	762.1407	-27.7609	285.1375	18.2542	574.8723	-0.0592	0.0182	-0.0073	-0.0462	0.0165	0.9585
3.2026	3.0174	2.515	-4.12	1.0793	0.89487	0.22328	6.2117	767.315	-33.4803	288.6325	22.9097	577.1366	-0.0592	0.0182	-0.0073	-0.0462	0.0165	0.9585
3.2153	1.7325	2.3112	-2.5609	0.35642	0.57241	0.93397	4.7288	773.2865	-38.2599	292.1699	26.6783	579.5691	-0.0592	0.0182	-0.0073	-0.0462	0.0165	0.9585
3.2279	0.74061	2.1784	-1.3168	-0.21793	0.29229	1.4787	3.6991	779.5621	-41.8678	295.4614	29.3786	581.8976	-0.0592	0.0182	-0.0073	-0.0462	0.0165	0.9585
3.2406	0.040517	2.109	-0.41159	-0.63403	0.066128	1.8566	3.099	785.5339	-44.373	298.2626	31.0819	583.7801	-0.0592	0.0182	-0.0073	-0.0462	0.0165	0.9585
3.2532	-0.41823	2.0847	0.18391	-0.90472	-0.10351	2.0984	2.869	790.5884	-46.0218	300.3757	32.0073	584.8704	-0.0592	0.0182	-0.0073	-0.0462	0.0165	0.9585
3.2659	-0.6946	2.0585	0.5354	-1.0464	-0.23073	2.2132	2.9629	794.1812	-47.0625	301.6586	32.3614	584.8393	-0.0592	0.0182	-0.0073	-0.0462	0.0165	0.9585
3.2785	-0.8489	1.9669	0.71432	-1.0738	-0.33277	2.1901	3.3465	795.9022	-47.727	302.0273	32.3392	583.4276	-0.0592	0.0182	-0.0073	-0.0462	0.0165	0.9585
3.2911	-0.92694	1.7325	0.79286	-0.99281	-0.43085	2.0002	4.0151	795.5094	-48.1601	301.4603	32.0592	580.4742	-0.0592	0.0182	-0.0073	-0.0462	0.0165	0.9585
3.3038	-0.9525	1.2592	0.81997	-0.79213	-0.53025	1.5838	4.9683	792.9685	-48.4635	300.0055	31.6079	575.9596	-0.0592	0.0182	-0.0073	-0.0462	0.0165	0.9585
3.3164	-0.94909	0.45588	0.8259	-0.45138	-0.62739	0.87018	6.1984	788.4607	-48.6696	297.7797	31.0204	570.0146	-0.0592	0.0182	-0.0073	-0.0462	0.0165	0.9585
3.3291	-0.91601	-0.76247	0.82271	0.052127	-0.7047	-0.22323	7.6977	782.3514	-48.7932	294.9553	30.3163	562.8983	-0.0592	0.0182	-0.0073	-0.0462	0.0165	0.9585
3.3417	-0.83514	-2.4328	0.80653	0.72793	-0.74179	-1.7321	9.4548	775.1101	-48.821	291.7286	29.4871	554.9475	-0.0592	0.0182	-0.0073	-0.0462	0.0165	0.9585
3.3544	-0.67178	-4.5153	0.76161	1.5589	-0.7066	-3.6149	11.4593	767.2057	-48.7658	288.2834	28.5456	546.492	-0.0592	0.0182	-0.0073	-0.0462	0.0165	0.9585
3.367	-0.38458	-6.8345	0.65804	2.473	-0.54996	-5.7055	13.689	759.0774	-48.6315	284.7836	27.4937	537.8576	-0.0592	0.0182	-0.0073	-0.0462	0.0165	0.9585
3.3796	0.086979	-9.0023	0.45227	3.3142	-0.20946	-7.6608	16.1311	751.0778	-48.4387	281.3558	26.3403	529.3092	-0.0592	0.0182	-0.0073	-0.0462	0.0165	0.9585
3.3923	0.80817	-10.3167	0.082563	3.8081	0.39104	-8.8646	18.7626	743.4467	-48.1934	278.0812	25.0879	521.0449	-0.0592	0.0182	-0.0073	-0.0462	0.0165	0.9585
3.4049	1.8279	-9.7004	-0.51347	3.537	1.323	-8.3743	21.584	736.2587	-47.9126	274.9795	23.7478	513.1237	-0.0592	0.0182	-0.0073	-0.0462	0.0165	0.9585
3.4176	3.1571	-5.6607	-1.3951	1.9202	2.6287	-4.8743	24.5688	729.4244	-47.5897	272.0096	22.3159	505.4914	-0.0592	0.0182	-0.0073	-0.0462	0.0165	0.9585
3.4302	4.7169	3.6897	-2.5781	-1.7756	4.2752	3.3134	27.6814	722.6265	-47.2293	269.0494	20.8027	497.9362	-0.0592	0.0182	-0.0073	-0.0462	0.0165	0.9585
3.4429	6.2993	20.4667	-4.0291	-8.3696	6.138	18.0708	30.8375	715.2965	-46.8185	265.8874	19.2212	490.0949	-0.0592	0.0182	-0.0073	-0.0462	0.0165	0.9585
3.4555	7.5039	46.6738	-5.5921	-18.6276	7.9111	41.2006	33.9087	706.6252	-46.3442	262.2259	17.6094	481.4675	-0.0592	0.0182	-0.0073	-0.0462	0.0165	0.9585
3.4681	7.7021	83.576	-6.9575	-33.0212	9.0668	73.8628	36.7353	695.6193	-45.7474	257.7031	15.9918	471.4461	-0.0592	0.0182	-0.0073	-0.0462	0.0165	0.9585
3.4808	6.0195	130.8444	-7.6704	-51.394	8.8603	115.8354	39.1189	681.1858	-44.9405	251.9267	14.3947	459.373	-0.0592	0.0182	-0.0073	-0.0462	0.0165	0.9585
3.4934	1.8044	185.76	-7.2217	-72.6482	6.5968	164.7713	40.8677	662.2288	-43.7933	244.5125	12.8143	444.5684	-0.0592	0.0182	-0.0073	-0.0462	0.0165	0.9585
3.5061	-4.4529	242.8836	-4.9415	-94.6126	1.8798	215.8476	41.8058	637.8661	-42.2005	235.1577	11.2655	426.4947	-0.0592	0.0182	-0.0073	-0.0462	0.0165	0.9585
3.5187	-11.2754	294.7355	-0.38511	-114.3787	-5.0965	262.2493	41.835	607.6562	-40.1168	223.7236	9.7715	404.8635	-0.0592	0.0182	-0.0073	-0.0462	0.0165	0.9585
3.5314	-17.156	335.8154	5.9493	-129.858	-13.2552	298.8455	40.9354	571.8253	-37.6334	210.3049	8.4126	379.812	-0.0592	0.0182	-0.0073	-0.0462	0.0165	0.9585
3.544	-21.5833	365.4825	12.9825	-140.8587	-21.3768	324.9453	39.212	531.2899	-34.9393	195.2356	7.272	351.9087	-0.0592	0.0182	-0.0073	-0.0462	0.0165	0.9585
3.5566	-24.5707	386.8459	19.7597	-148.6423	-28.6065	343.3026	36.8609	487.4262	-32.2788	179.0061	6.4302	322.043	-0.0592	0.0182	-0.0073	-0.0462	0.0165	0.9585
3.5693	-26.4689	404.2288	25.5158	-154.9428	-34.4001	357.8193	34.1441	441.7332	-29.7699	162.153	5.8572	291.1681	-0.0592	0.0182	-0.0073	-0.0462	0.0165	0.9585
3.5819	-27.5576	421.5276	29.8268	-161.3067	-38.5166	371.9278	31.2658	395.6082	-27.3767	145.177	5.4482	260.1862	-0.0592	0.0182	-0.0073	-0.0462	0.0165	0.9585
3.5946	-28.0355	441.3641	32.6912	-168.7503	-41.0605	387.9349	28.3302	350.1649	-24.9793	128.4805	5.0796	229.8233	-0.0592	0.0182	-0.0073	-0.0462	0.0165	0.9585
3.6072	-28.0276	464.9611	34.4825	-177.7223	-42.4331	406.9066	25.3535	306.2109	-22.4775	112.3559	4.674	200.6029	-0.0592	0.0182	-0.0073	-0.0462	0.0165	0.9585
3.6199	-27.6506	492.5265	35.8313	-188.2449	-43.2419	429.039	22.2816	264.3257	-19.8704	97.0059	4.2453	172.9058	-0.0592	0.0182	-0.0073	-0.0462	0.0165	0.9585
3.6325	-27.0112	523.3966	37.3804	-200.0018	-44.0896	453.774	19.0526	224.9319	-17.2421	82.5732	3.8609	146.9903	-0.0592	0.0182	-0.0073	-0.0462	0.0165	0.9585
3.6451	-26.2801	556.3849	39.6201	-212.4885	-45.4646	480.1009	15.638	188.4189	-14.7429	69.1841	3.6196	123.0952	-0.0592	0.0182	-0.0073	-0.0462	0.0165	0.9585
3.6578	-25.6384	590.3057	42.7056	-225.2229	-47.5663	507.0032	12.1129	155.1412	-12.5103	56.9588	3.5784	101.4025	-0.0592	0.0182	-0.0073	-0.0462	0.0165	0.9585
3.6704	-25.1654	624.1716	46.4419	-237.8369	-50.2591	533.623	8.5945	125.3969	-10.6327	46.0056	3.7428	82.0736	-0.0592	0.0182	-0.0073	-0.0462	0.0165	0.9585
3.6831	-24.8475	657.1826	50.4293	-250.0516	-53.2005	559.2799	5.2846	99.3425	-9.123	36.3901	4.0445	65.1662	-0.0592	0.0182	-0.0073	-0.0462	0.0165	0.9585
3.6957	-24.5935	688.4974	54.3038	-261.5759	-56.0527	583.2418	2.3486	76.9673	-7.9121	28.1204	4.3777	50.6525	-0.0592	0.0182	-0.0073	-0.0462	0.0165	0.9585
3.7084	-24.3011	717.1525	57.8089	-272.0684	-58.5611	604.7074	-0.085308	58.0845	-6.876	21.1449	4.6195	38.3884	-0.0592	0.0182	-0.0073	-0.0462	0.0165	0.9585
3.721	-23.8543	742.2133	60.853	-281.1874	-60.6078	622.9244	-1.9429	42.4412	-5.9073	15.3817	4.6784	28.2148	-0.0592	0.0182	-0.0073	-0.0462	0.0165	0.9585
3.7336	-23.1815	763.0085	63.417	-288.6818	-62.1543	637.3803	-3.1894	29.7453	-4.9323	10.7261	4.4946	19.9609	-0.0592	0.0182	-0.0073	-0.0462	0.0165	0.9585
3.7463	-22.237	779.2488	65.4982	-294.4466	-63.1816	647.874	-3.7823	19.6783	-3.9244	7.0585	4.0385	13.4175	-0.0592	0.0182	-0.0073	-0.0462	0.0165	0.9585
3.7589	-20.9646	791.0293	67.0906	-298.523	-63.6653	654.5279	-3.7297	11.9601	-2.9094	4.266	3.3389	8.4083	-0.0592	0.0182	-0.0073	-0.0462	0.0165	0.9585
3.7716	-19.3444	798.6476	68.1922	-301.0325	-63.5956	657.634	-3.1282	6.329	-1.9482	2.2436	2.4793	4.7399	-0.0592	0.0182	-0.0073	-0.0462	0.0165	0.9585
3.7842	-17.3893	802.5003	68.8186	-302.1388	-62.9888	657.5549	-2.2651	2.5618	-1.1333	0.89887	1.6241	2.277	-0.0592	0.0182	-0.0073	-0.0462	0.0165	0.9585
3.7969	-15.1423	803.0753	68.9962	-302.0345	-61.8797	654.7362	-1.3683	0.32278	-0.51922	0.10655	0.89316	0.80499	-0.0592	0.0182	-0.0073	-0.0462	0.0165	0.9585
3.8095	-12.6596	800.9223	68.7827	-300.9294	-60.3381	649.6587	-0.58638	-0.78246	-0.094927	-0.27604	0.32467	0.082116	-0.0592	0.0182	-0.0073	-0.0462	0.0165	0.9585
3.8221	-10.0244	796.6523	68.2644	-299.0506	-58.47	642.8451	0.032418	-1.1338	0.16353	-0.38608	-0.07737	-0.15155	-0.0592	0.0182	-0.0073	-0.0462	0.0165	0.9585
3.8348	-7.3308	790.8967	67.5501	-296.6287	-56.4086	634.827	0.47271	-1.0131	0.29915	-0.32887	-0.33085	-0.068933	-0.0592	0.0182	-0.0073	-0.0462	0.0165	0.9585
3.8474	-4.678	784.2417	66.743	-293.8813	-54.2844	626.0967	0.75465	-0.65163	0.34892	-0.18774	-0.46335	0.16981	-0.0592	0.0182	-0.0073	-0.0462	0.0165	0.9585
3.8601	-2.148	777.2382	65.9277	-291.0161	-52.204	617.0993	0.90227	-0.19711	0.34811	-0.016321	-0.51025	0.46946	-0.0592	0.0182	-0.0073	-0.0462	0.0165	0.9585
3.8727	0.21035	770.3752	65.1437	-288.2237	-50.2199	608.2105	0.9547	0.2528	0.3172	0.15072	-0.50051	0.76736	-0.0592	0.0182	-0.0073	-0.0462	0.0165	0.9585
3.8854	2.3811	764.0481	64.4036	-285.6624	-48.3473	599.7299	0.94643	0.6345	0.27301	0.29322	-0.46104	1.0202	-0.0592	0.0182	-0.0073	-0.0462	0.0165	0.9585
3.898	4.3853	758.5259	63.7075	-283.4419	-46.5767	591.8301	0.90536	0.91622	0.22098	0.40016	-0.4057	1.1999	-0.0592	0.0182	-0.0073	-0.0462	0.0165	0.9585
3.9106	6.2495	753.9513	63.0514	-281.6196	-44.8909	584.5836	0.85726	1.075	0.16859	0.46139	-0.34809	1.2744	-0.0592	0.0182	-0.0073	-0.0462	0.0165	0.9585
3.9233	8.0462	750.3627	62.4266	-280.2122	-43.2574	577.982	0.80368	1.0827	0.11497	0.464	-0.28751	1.2239	-0.0592	0.0182	-0.0073	-0.0462	0.0165	0.9585
3.9359	9.8523	747.7503	61.8249	-279.2163	-41.6429	571.9973	0.7531	0.89393	0.064682	0.38978	-0.22998	1.0172	-0.0592	0.0182	-0.0073	-0.0462	0.0165	0.9585
3.9486	11.7425	746.0862	61.2346	-278.6184	-40.0113	566.5927	0.69785	0.45781	0.021185	0.21688	-0.17565	0.61279	-0.0592	0.0182	-0.0073	-0.0462	0.0165	0.9585
3.9612	13.7744	745.3693	60.6614	-278.4065	-38.3433	561.7817	0.64733	-0.30443	-0.0096709	-0.082863	-0.13041	-0.07841	-0.0592	0.0182	-0.0073	-0.0462	0.0165	0.9585
3.9739	15.996	745.617	60.1205	-278.5706	-36.6287	557.6125	0.59567	-1.4544	-0.020967	-0.5316	-0.099743	-1.113	-0.0592	0.0182	-0.0073	-0.0462	0.0165	0.9585
3.9865	18.4159	746.8259	59.6608	-279.0865	-34.8977	554.1323	0.54929	-3.0177	-0.002018	-1.1376	-0.097865	-2.5244	-0.0592	0.0182	-0.0073	-0.0462	0.0165	0.9585
3.9991	21.0172	748.9447	59.3294	-279.9053	-33.1859	551.361	0.50721	-4.9396	0.068165	-1.8781	-0.14734	-4.2721	-0.0592	0.0182	-0.0073	-0.0462	0.0165	0.9585
4.0118	23.7503	751.8154	59.1829	-280.9394	-31.5543	549.2476	0.47408	-7.0254	0.21554	-2.676	-0.27415	-6.1816	-0.0592	0.0182	-0.0073	-0.0462	0.0165	0.9585
4.0244	26.5354	755.1331	59.2349	-282.0514	-30.0453	547.6354	0.47277	-8.8623	0.47115	-3.371	-0.5124	-7.8777	-0.0592	0.0182	-0.0073	-0.0462	0.0165	0.9585
4.0371	29.3037	758.398	59.4901	-283.0415	-28.6982	546.2167	0.52375	-9.7461	0.86533	-3.6922	-0.89424	-8.7218	-0.0592	0.0182	-0.0073	-0.0462	0.0165	0.9585
4.0497	32.0033	760.9053	59.9151	-283.6449	-27.5206	544.531	0.66793	-8.6296	1.4262	-3.2368	-1.4532	-7.7757	-0.0592	0.0182	-0.0073	-0.0462	0.0165	0.9585
4.0624	34.6119	761.786	60.4618	-283.5448	-26.5017	541.9718	0.94509	-4.0767	2.1553	-1.4584	-2.1967	-3.7329	-0.0592	0.0182	-0.0073	-0.0462	0.0165	0.9585
4.075	37.1316	760.1374	61.0344	-282.4201	-25.5802	537.8906	1.3964	5.6697	3.0201	2.3098	-3.1024	5.0134	-0.0592	0.0182	-0.0073	-0.0462	0.0165	0.9585
4.0876	39.5695	755.0971	61.5275	-279.9745	-24.6897	531.6626	2.0465	22.5302	3.915	8.7881	-4.0779	20.2223	-0.0592	0.0182	-0.0073	-0.0462	0.0165	0.9585
4.1003	41.9266	745.848	61.8113	-275.9408	-23.748	522.7064	2.874	48.2388	4.6356	18.6181	-4.9217	43.4745	-0.0592	0.0182	-0.0073	-0.0462	0.0165	0.9585
4.1129	44.1463	731.6044	61.7352	-270.0728	-22.6778	510.4792	3.5928	83.8811	4.8685	32.185	-5.236	75.7813	-0.0592	0.0182	-0.0073	-0.0462	0.0165	0.9585
4.1256	46.1207	711.5711	61.1155	-262.1266	-21.3977	494.4458	3.4203	129.1681	4.1958	49.3426	-4.3364	116.9098	-0.0592	0.0182	-0.0073	-0.0462	0.0165	0.9585
4.1382	47.6742	684.9575	59.7702	-251.8619	-19.8504	474.0967	1.0778	181.586	2.0758	69.0945	-1.2573	164.6348	-0.0592	0.0182	-0.0073	-0.0462	0.0165	0.9585
4.1509	48.5785	651.1121	57.5742	-239.0821	-18.0427	449.0302	-3.922	236.3473	-1.9294	89.5959	4.5487	214.6362	-0.0592	0.0182	-0.0073	-0.0462	0.0165	0.9585
4.1635	48.5613	609.776	54.4982	-223.7114	-16.0601	419.1278	-10.578	288.3317	-7.552	108.9175	12.4146	262.1244	-0.0592	0.0182	-0.0073	-0.0462	0.0165	0.9585
